<?xml version="1.0" standalone="no"?>
<!DOCTYPE svg PUBLIC "-//W3C//DTD SVG 20010904//EN"
 "http://www.w3.org/TR/2001/REC-SVG-20010904/DTD/svg10.dtd">
<svg version="1.0" xmlns="http://www.w3.org/2000/svg"
 width="256.000000pt" height="256.000000pt" viewBox="0 0 256.000000 256.000000"
 preserveAspectRatio="xMidYMid meet">
<g transform="translate(0.000000,256.000000) scale(0.100000,-0.100000)"
fill="#000000" stroke="none">
<path d="M1163 2150 c-105 -13 -251 -65 -342 -121 -239 -147 -382 -376 -412
-661 -36 -329 130 -669 407 -834 151 -90 288 -127 464 -127 247 0 449 83 621
253 102 101 167 206 208 335 105 328 31 660 -202 902 -61 63 -87 80 -67 43 6
-11 9 -24 6 -29 -3 -4 1 -8 9 -8 8 0 11 5 8 10 -3 6 -1 7 6 3 8 -6 9 -12 2
-20 -8 -9 -4 -19 14 -36 23 -22 30 -20 25 5 -1 6 2 6 7 2 4 -5 8 -14 8 -20 0
-7 7 -12 15 -12 8 0 16 -7 16 -15 1 -8 3 -18 4 -22 1 -5 3 -12 4 -18 0 -5 9
-15 19 -22 10 -7 19 -23 20 -35 0 -12 3 -20 5 -18 2 2 17 -10 33 -26 22 -23
27 -34 20 -47 -6 -12 -5 -23 4 -35 10 -14 14 -15 19 -5 3 7 4 0 1 -15 -4 -20
-2 -27 6 -22 8 5 9 1 4 -15 -5 -15 -3 -20 3 -16 11 7 38 -101 28 -111 -3 -4
-6 3 -6 15 0 12 -5 22 -10 22 -6 0 -8 10 -4 24 3 13 1 26 -4 30 -13 8 -9 -41
6 -77 7 -16 13 -49 14 -75 l1 -47 7 45 c5 32 7 12 8 -70 0 -77 -2 -108 -9 -95
-6 14 -7 4 -3 -30 5 -47 4 -49 -10 -31 -9 11 -16 15 -16 10 0 -6 5 -15 12 -22
9 -9 8 -16 -4 -29 -25 -29 -31 -50 -7 -23 16 18 20 20 16 7 -4 -11 -10 -30
-13 -43 -3 -13 -10 -21 -15 -18 -6 3 -7 -6 -4 -23 5 -19 4 -24 -3 -15 -7 11
-10 11 -16 -3 -3 -9 -11 -13 -17 -9 -6 3 -4 -5 5 -18 14 -22 14 -26 0 -44 -15
-18 -15 -18 -5 3 8 16 8 24 -1 29 -6 4 -8 3 -4 -4 3 -6 1 -14 -5 -17 -6 -4 -8
-18 -4 -32 3 -14 2 -22 -3 -19 -15 9 -33 -19 -26 -38 4 -11 2 -16 -7 -14 -8 2
-13 -3 -11 -10 2 -10 -4 -12 -20 -7 -20 5 -21 4 -5 -5 9 -6 15 -16 12 -21 -4
-5 -11 -7 -16 -4 -5 4 -9 1 -9 -6 0 -8 -5 -7 -17 2 -16 13 -17 12 -5 -3 12
-14 11 -19 -7 -30 -12 -7 -21 -17 -21 -22 0 -4 8 -2 18 5 15 13 16 12 3 -4 -8
-10 -22 -16 -32 -15 -10 2 -18 0 -19 -4 0 -4 -12 -20 -25 -34 -14 -15 -25 -30
-25 -35 0 -9 -20 -6 -40 6 -13 8 -13 7 -1 -8 7 -9 18 -14 24 -10 6 3 7 1 3 -6
-4 -6 -12 -9 -17 -6 -11 7 -46 -16 -47 -30 0 -5 -6 -11 -13 -14 -7 -2 -9 2 -5
10 4 8 -2 3 -13 -10 -12 -13 -21 -18 -21 -12 0 6 -7 8 -15 5 -8 -4 -15 -13
-15 -21 0 -8 -4 -11 -10 -8 -5 3 -10 2 -10 -4 0 -6 -7 -7 -17 -4 -11 5 -14 3
-8 -6 5 -10 2 -11 -14 -6 -13 4 -21 2 -21 -5 0 -7 -9 -9 -22 -5 -19 5 -20 4
-8 -5 12 -10 11 -11 -8 -7 -13 3 -20 1 -16 -5 4 -7 -6 -8 -27 -4 -27 5 -30 4
-14 -4 15 -8 9 -9 -25 -5 -33 4 -40 2 -25 -4 14 -7 -1 -9 -50 -7 -52 3 -60 2
-30 -4 30 -5 12 -7 -67 -8 -59 -1 -109 2 -113 8 -3 5 -12 7 -20 4 -7 -3 -39 0
-70 6 -50 10 -55 13 -43 28 7 9 8 13 2 9 -7 -4 -31 0 -53 8 -23 8 -39 10 -36
5 3 -6 1 -10 -4 -10 -6 0 -11 8 -11 18 0 14 -2 15 -10 2 -7 -11 -10 -11 -10
-2 0 7 -5 10 -12 6 -6 -4 -8 -3 -4 4 3 6 2 13 -4 17 -6 4 -8 10 -5 15 3 5 0
12 -6 16 -8 4 -9 3 -5 -4 4 -7 2 -12 -5 -12 -8 0 -8 -4 1 -15 11 -13 10 -14
-4 -9 -9 3 -16 10 -16 15 0 5 -20 22 -45 37 -37 23 -43 30 -33 42 11 12 10 12
-4 1 -10 -7 -15 -18 -11 -24 3 -6 1 -7 -5 -3 -6 4 -8 14 -5 23 5 12 3 14 -7 8
-10 -6 -12 -4 -7 9 4 9 3 14 -2 11 -5 -3 -22 6 -37 20 -15 14 -32 25 -39 25
-6 0 -24 14 -41 32 -16 17 -24 28 -19 25 6 -3 17 -1 25 5 12 8 12 9 -2 4 -12
-3 -18 0 -18 9 0 8 -4 15 -8 15 -5 0 -17 7 -28 15 -19 15 -19 15 1 9 16 -5 17
-4 5 4 -8 6 -18 8 -23 5 -5 -3 -6 3 -3 14 4 12 0 25 -9 33 -12 10 -13 15 -3
28 12 14 10 14 -12 2 -22 -12 -24 -12 -12 2 9 11 10 18 2 23 -6 3 -7 11 -4 17
4 7 2 8 -4 4 -6 -4 -9 -14 -6 -24 5 -14 4 -14 -4 -3 -6 9 -7 22 -2 31 9 17
-12 54 -25 42 -4 -4 -4 4 0 17 5 16 4 21 -4 17 -14 -9 -14 -4 -1 29 7 19 7 24
-2 19 -8 -5 -9 -2 -5 9 3 9 2 19 -4 23 -6 3 -8 13 -4 21 5 14 3 14 -11 2 -15
-13 -17 -11 -12 19 2 18 1 35 -4 38 -12 8 -10 102 3 110 8 5 10 35 7 93 -4 55
-2 79 3 66 8 -17 8 -15 4 6 -3 17 1 31 10 39 8 7 15 18 15 24 0 6 -8 2 -16 -9
-16 -19 -16 -19 -9 5 4 14 11 26 15 28 4 2 6 13 3 25 -4 18 -3 19 6 7 9 -12
10 -9 5 15 -4 20 -3 26 4 17 7 -11 10 -11 16 3 3 9 11 13 17 9 6 -3 4 5 -6 19
-16 24 -15 27 5 47 11 11 18 25 15 30 -3 5 0 12 6 16 8 5 9 3 4 -6 -5 -8 -4
-11 3 -6 6 4 8 14 5 23 -4 11 -3 14 5 9 8 -4 19 4 30 23 9 17 20 31 25 31 4 0
7 7 7 16 0 9 6 14 14 11 9 -4 12 2 10 18 -3 28 19 50 41 42 18 -7 30 9 14 19
-8 5 -9 3 -4 -6 5 -9 4 -11 -4 -6 -9 6 -9 11 0 22 14 17 23 19 13 3 -4 -7 -1
-10 7 -7 8 3 12 13 11 23 -3 17 -2 17 13 5 9 -7 15 -9 14 -4 -6 32 9 39 41 19
12 -7 13 -6 5 6 -8 10 -4 21 17 43 15 16 28 24 28 19 0 -5 7 -10 15 -10 12 0
12 3 2 16 -9 12 -9 13 1 7 7 -4 12 -2 12 5 0 6 8 3 18 -8 9 -10 14 -14 10 -9
-22 28 22 71 46 45 8 -9 7 -11 -5 -6 -9 3 -22 1 -30 -4 -11 -7 -12 -10 -1 -21
11 -11 13 -10 10 2 -2 10 5 14 24 14 15 -1 26 2 24 5 -8 13 23 43 39 37 11 -4
14 -2 9 6 -5 7 0 9 14 6 14 -4 20 -2 16 4 -7 10 6 9 63 -7 10 -3 5 2 -12 10
l-30 16 45 -5 c27 -3 37 -2 25 3 -27 11 66 21 180 19 74 -1 83 -2 50 -9 -31
-6 -24 -7 30 -4 46 2 61 1 45 -5 -18 -6 -20 -8 -7 -9 12 -1 16 -6 11 -13 -4
-7 2 -5 13 5 24 21 47 22 63 2 8 -10 21 -13 33 -9 13 4 17 2 12 -5 -5 -8 2
-10 22 -6 15 4 23 3 17 -2 -7 -5 -4 -13 7 -25 16 -15 18 -15 24 -1 5 14 7 14
19 -3 8 -10 12 -22 10 -25 -6 -11 30 -5 38 6 5 6 8 5 8 -2 0 -7 18 -24 40 -38
44 -28 64 -33 34 -9 -18 14 -18 15 4 4 22 -11 23 -13 7 -30 -12 -14 -13 -20
-4 -26 8 -4 10 -3 5 4 -4 7 -1 12 9 12 10 0 13 -5 9 -12 -4 -7 -4 -10 1 -6 4
4 15 2 23 -5 13 -10 14 -9 4 9 -6 12 -9 24 -6 27 13 13 -156 110 -247 143
-116 41 -291 59 -416 44z m-203 -74 c0 -3 -4 -8 -10 -11 -5 -3 -10 -1 -10 4 0
6 5 11 10 11 6 0 10 -2 10 -4z m660 -6 c0 -5 -2 -10 -4 -10 -3 0 -8 5 -11 10
-3 6 -1 10 4 10 6 0 11 -4 11 -10z m55 -28 c-3 -3 -11 0 -18 7 -9 10 -8 11 6
5 10 -3 15 -9 12 -12z m75 -38 c0 -2 -9 0 -20 6 -11 6 -20 13 -20 16 0 2 9 0
20 -6 11 -6 20 -13 20 -16z m-950 -8 c0 -2 -12 -11 -27 -20 l-28 -17 24 20
c23 21 31 25 31 17z m1106 -129 c3 -21 1 -21 -20 2 -17 19 -17 19 0 17 9 -2
18 -10 20 -19z m-1328 -91 c-13 -19 -24 -33 -26 -31 -5 4 37 65 44 65 2 0 -6
-15 -18 -34z m1412 4 c9 -16 8 -18 -5 -14 -9 4 -13 9 -11 12 3 3 0 12 -7 20
-9 13 -9 14 0 8 7 -4 18 -16 23 -26z m50 -84 c0 -6 -7 -1 -15 10 -8 10 -15 23
-15 28 0 6 7 1 15 -10 8 -10 15 -23 15 -28z m-1540 -80 c0 -3 -4 -8 -10 -11
-5 -3 -10 -1 -10 4 0 6 5 11 10 11 6 0 10 -2 10 -4z m1580 -6 c0 -5 -2 -10 -4
-10 -3 0 -8 5 -11 10 -3 6 -1 10 4 10 6 0 11 -4 11 -10z m-1653 -302 c-2 -18
-4 -6 -4 27 0 33 2 48 4 33 2 -15 2 -42 0 -60z m28 -227 c3 -5 1 -12 -5 -16
-5 -3 -10 1 -10 9 0 18 6 21 15 7z m40 -131 c3 -5 1 -10 -4 -10 -6 0 -11 5
-11 10 0 6 2 10 4 10 3 0 8 -4 11 -10z m1585 0 c0 -5 -5 -10 -11 -10 -5 0 -7
5 -4 10 3 6 8 10 11 10 2 0 4 -4 4 -10z m-1532 -125 c-3 -3 -9 2 -12 12 -6 14
-5 15 5 6 7 -7 10 -15 7 -18z m1475 10 c-3 -9 -8 -14 -10 -11 -3 3 -2 9 2 15
9 16 15 13 8 -4z m-63 -99 c0 -2 -8 -10 -17 -17 -16 -13 -17 -12 -4 4 13 16
21 21 21 13z m-81 -82 c-6 -8 -17 -14 -23 -14 -6 0 -3 5 7 11 9 6 14 15 11 21
-4 7 -2 8 5 4 9 -6 9 -11 0 -22z m-1161 -24 c17 -27 10 -25 -19 6 -13 14 -17
23 -9 19 9 -3 21 -14 28 -25z m77 -60 c3 -6 -1 -7 -9 -4 -18 7 -21 14 -7 14 6
0 13 -4 16 -10z m55 -36 c0 -2 -9 0 -20 6 -11 6 -20 13 -20 16 0 2 9 0 20 -6
11 -6 20 -13 20 -16z"/>
<path d="M1595 2151 c-3 -5 -2 -12 3 -15 5 -3 9 1 9 9 0 17 -3 19 -12 6z"/>
<path d="M1233 2123 c9 -2 25 -2 35 0 9 3 1 5 -18 5 -19 0 -27 -2 -17 -5z"/>
<path d="M1466 2101 c-4 -5 3 -7 14 -4 23 6 26 13 6 13 -8 0 -17 -4 -20 -9z"/>
<path d="M673 1983 c0 -9 4 -10 14 -2 7 6 13 12 13 14 0 1 -6 2 -13 2 -8 0
-14 -6 -14 -14z"/>
<path d="M1889 1983 c-12 -16 -12 -17 2 -6 9 7 20 9 24 5 5 -4 5 -1 1 6 -9 16
-11 15 -27 -5z"/>
<path d="M1844 1860 c0 -13 4 -16 10 -10 7 7 7 13 0 20 -6 6 -10 3 -10 -10z"/>
<path d="M645 1860 c-3 -5 1 -10 10 -10 9 0 13 5 10 10 -3 6 -8 10 -10 10 -2
0 -7 -4 -10 -10z"/>
<path d="M1930 1820 c-9 -6 -10 -10 -3 -10 6 0 15 5 18 10 8 12 4 12 -15 0z"/>
<path d="M619 1783 c-13 -16 -12 -17 4 -4 9 7 17 15 17 17 0 8 -8 3 -21 -13z"/>
<path d="M1260 1765 c-7 -8 -23 -13 -36 -11 -16 3 -21 0 -18 -9 3 -7 0 -16 -7
-21 -8 -5 -10 -3 -5 7 4 8 1 6 -6 -3 -9 -10 -19 -13 -27 -8 -11 6 -11 9 0 13
11 4 11 6 1 6 -7 1 -15 -6 -18 -14 -4 -8 -11 -12 -18 -8 -6 4 -6 0 2 -9 10
-13 10 -18 1 -24 -8 -5 -10 -3 -5 7 5 8 2 8 -6 -2 -7 -9 -19 -14 -27 -11 -10
3 -11 0 -5 -9 6 -11 3 -10 -11 1 -11 9 -16 10 -11 3 8 -15 -6 -17 -20 -3 -6 6
-15 5 -24 -1 -13 -9 -12 -10 2 -6 9 3 22 -1 30 -10 11 -14 10 -15 -7 -10 -23
8 -50 -6 -41 -21 3 -5 -1 -13 -10 -16 -23 -9 -31 -7 -15 3 9 6 10 11 2 15 -10
6 -15 -6 -12 -26 0 -4 -12 -6 -27 -4 -19 2 -29 -2 -29 -10 0 -7 5 -10 10 -7 6
3 7 1 3 -6 -4 -6 -18 -9 -32 -7 -13 3 -22 1 -20 -3 3 -5 -6 -19 -19 -31 -14
-13 -25 -28 -25 -34 0 -6 5 -4 10 4 7 10 9 -51 7 -185 -1 -144 -5 -199 -13
-198 -8 1 -10 -6 -6 -19 5 -21 6 -21 13 -2 5 13 8 4 8 -28 1 -35 6 -50 20 -57
10 -6 21 -7 25 -4 3 3 6 1 6 -4 0 -6 -6 -14 -12 -16 -10 -4 -10 -6 0 -6 8 -1
10 -6 6 -13 -5 -10 -4 -10 6 -1 7 6 20 9 29 6 13 -4 14 -3 1 5 -8 6 -18 8 -24
5 -5 -3 -6 -1 -2 5 9 15 34 4 47 -20 7 -12 17 -17 26 -14 14 6 14 4 2 -11 -7
-10 -9 -15 -5 -11 5 4 15 3 22 -3 8 -6 21 -8 30 -5 14 5 15 4 5 -8 -10 -12 -7
-14 18 -12 23 2 28 -1 20 -10 -8 -9 -4 -12 16 -10 14 2 23 1 20 -2 -6 -6 25
-31 39 -32 6 0 1 7 -10 16 -18 14 -18 15 4 4 18 -9 21 -14 12 -25 -9 -10 -5
-13 20 -11 17 1 33 -2 36 -6 3 -5 0 -7 -7 -6 -6 2 -14 -4 -16 -12 -3 -9 -1
-11 4 -5 11 13 47 19 39 6 -6 -10 2 -11 54 -11 51 0 60 1 55 10 -7 12 11 22
46 24 23 2 28 -1 24 -13 -5 -13 -4 -13 6 -4 10 10 9 16 -1 28 -11 13 -10 15 3
10 8 -4 21 2 28 12 9 13 24 18 44 16 21 -1 26 0 15 7 -8 5 -18 6 -24 3 -5 -3
-6 -1 -2 5 4 8 15 8 31 2 13 -5 27 -6 29 -1 8 13 -4 20 -22 14 -14 -4 -15 -3
-3 5 9 7 21 7 32 1 12 -6 19 -4 23 7 5 14 9 14 24 3 13 -10 12 -7 -3 10 -11
14 -14 21 -6 16 9 -5 20 0 33 16 11 13 16 18 12 10 -5 -10 -3 -12 5 -7 6 4 20
2 29 -5 14 -11 15 -11 5 0 -12 14 -6 44 7 36 10 -6 60 45 60 60 0 5 -5 3 -10
-5 -6 -10 -9 53 -9 185 1 114 4 189 9 175 7 -22 8 -20 7 13 0 24 -3 33 -8 25
-6 -8 -9 0 -9 22 0 26 3 31 10 20 5 -8 10 -10 10 -4 0 6 -7 17 -15 24 -9 7
-14 18 -12 24 3 6 -3 18 -11 26 -14 13 -15 12 -10 -1 4 -9 1 -16 -8 -16 -7 0
-11 4 -8 9 3 4 -1 5 -9 2 -8 -3 -18 0 -23 7 -4 7 -3 10 4 5 6 -3 13 -3 16 2 5
8 -8 12 -47 13 -10 0 -15 5 -11 11 5 8 1 9 -11 4 -16 -6 -16 -4 -4 11 9 11 10
14 2 9 -7 -4 -13 -2 -13 3 0 6 -9 11 -20 11 -22 0 -27 15 -7 24 6 3 -3 3 -21
0 -25 -3 -32 -1 -26 8 5 8 1 7 -11 -2 -15 -12 -17 -12 -10 -1 6 10 4 13 -7 9
-13 -5 -45 28 -41 42 1 3 -14 4 -34 2 -27 -4 -34 -1 -28 8 5 8 4 11 -2 7 -6
-4 -13 0 -17 8 -3 8 -11 12 -19 9 -8 -3 -20 2 -27 11 -16 19 -24 19 -40 0z
m155 -85 c124 -71 142 -79 129 -58 -4 7 -3 8 5 4 6 -4 9 -11 6 -16 -3 -4 24
-24 60 -44 35 -20 67 -41 70 -46 11 -17 6 -471 -5 -484 -5 -7 -6 -17 -2 -21 4
-5 1 -5 -6 -1 -7 4 -88 -36 -198 -98 -102 -58 -191 -106 -197 -105 -7 0 -100
51 -207 112 l-195 113 -5 233 c-3 156 -1 239 6 248 13 19 384 232 403 233 7 0
69 -31 136 -70z m108 -34 c4 -10 1 -13 -8 -9 -8 3 -12 9 -9 14 7 12 11 11 17
-5z m-483 -10 c0 -2 -7 -7 -16 -10 -8 -3 -12 -2 -9 4 6 10 25 14 25 6z"/>
<path d="M1110 1595 c-124 -71 -164 -99 -163 -112 1 -10 0 -12 -3 -5 -18 40
-24 -8 -24 -195 l0 -208 180 -103 180 -102 180 102 180 103 0 209 c0 184 -2
207 -16 202 -8 -3 -13 -2 -9 3 4 7 -323 202 -337 201 -1 -1 -77 -43 -168 -95z
m154 63 c-6 -10 -3 -9 8 0 23 18 60 -1 51 -26 -6 -14 -4 -15 8 -5 10 8 19 9
29 1 12 -8 12 -9 -3 -4 -11 4 -16 2 -11 -5 3 -6 15 -9 25 -6 10 3 22 0 26 -5
4 -7 1 -8 -7 -3 -9 5 -11 4 -6 -4 4 -6 14 -10 21 -9 8 2 27 -12 43 -31 19 -23
29 -29 29 -18 0 9 -4 14 -8 12 -4 -3 -10 2 -13 11 -5 13 -1 12 24 -3 17 -9 30
-21 30 -26 0 -4 -5 -5 -12 -1 -7 4 -8 3 -4 -5 6 -9 11 -9 21 -1 9 7 15 7 19 1
4 -5 -1 -14 -10 -19 -11 -6 -13 -11 -5 -16 6 -4 11 -2 11 4 0 7 7 9 16 6 10
-4 13 -2 7 7 -4 6 9 -4 30 -24 l37 -36 0 -177 c0 -161 -2 -176 -17 -177 -11 0
-13 -3 -5 -6 19 -8 14 -22 -7 -16 -10 3 -22 0 -25 -6 -5 -7 -1 -8 11 -4 22 8
17 2 -22 -22 -28 -17 -29 -17 -15 -1 12 15 9 15 -20 -3 -39 -23 -55 -27 -44
-9 4 7 3 8 -5 4 -6 -4 -8 -12 -5 -18 5 -8 1 -9 -10 -5 -10 4 -15 3 -11 -3 3
-6 1 -10 -5 -10 -6 0 -8 -4 -5 -10 6 -9 -8 -14 -28 -11 -4 0 -6 -2 -6 -6 3
-19 -2 -27 -10 -15 -6 10 -13 8 -32 -8 -23 -20 -23 -21 -1 -10 27 13 30 5 3
-9 -15 -8 -25 -6 -47 12 -15 12 -24 15 -19 7 13 -21 13 -47 1 -47 -6 0 -18 -2
-26 -4 -9 -2 -15 2 -14 12 1 9 -5 16 -12 16 -7 0 -11 -4 -8 -9 3 -4 -2 -5 -10
-2 -9 3 -12 12 -8 22 5 15 4 15 -11 3 -15 -12 -18 -10 -26 10 -5 13 -10 18
-10 11 -1 -7 -6 -10 -11 -7 -6 4 -7 11 -4 17 5 7 1 9 -9 5 -9 -3 -19 -2 -22 3
-3 4 1 11 7 13 8 4 7 6 -4 6 -11 1 -16 8 -13 19 2 12 -3 18 -17 18 -15 0 -16
-3 -6 -11 16 -13 21 -35 8 -35 -5 0 -10 5 -10 11 0 5 -4 7 -10 4 -5 -3 -22 7
-37 22 -14 15 -23 22 -19 16 5 -9 2 -11 -9 -7 -9 4 -14 12 -12 18 3 7 -8 19
-23 28 -26 15 -28 15 -23 1 4 -11 2 -14 -5 -9 -9 5 -12 62 -12 193 l0 186 28
24 c21 18 22 22 7 17 -25 -9 -18 -1 14 16 13 6 21 7 17 2 -4 -6 2 -8 14 -5 11
3 20 10 20 15 0 5 -5 6 -12 2 -7 -4 -8 -3 -4 5 6 9 11 9 21 1 10 -8 15 -8 21
1 4 8 3 9 -4 5 -7 -4 -12 -3 -12 2 0 5 23 21 51 36 56 29 63 31 54 16 -3 -6 1
-7 10 -4 9 4 14 13 10 22 -4 12 -3 12 8 3 11 -9 17 -8 27 4 11 13 10 15 -6 9
-15 -5 -16 -4 -4 5 11 7 19 6 32 -6 10 -9 21 -13 24 -10 4 3 16 1 28 -5 11 -6
18 -7 13 -3 -4 5 1 18 10 29 18 21 18 21 -4 2 -23 -19 -23 -19 -45 0 -19 15
-20 16 -9 2 7 -10 9 -18 3 -18 -18 0 -21 29 -4 39 22 14 25 13 16 -1z m256
-632 c0 -2 -16 -13 -35 -25 -19 -11 -35 -17 -35 -12 0 4 15 15 33 24 37 18 37
18 37 13z"/>
<path d="M1105 1560 c-4 -6 -11 -7 -17 -4 -7 4 -8 2 -4 -5 5 -8 12 -9 19 -3 7
5 19 12 27 15 12 4 12 6 -2 6 -9 1 -20 -4 -23 -9z"/>
<path d="M1356 1517 c-19 -19 -28 -22 -42 -14 -17 10 -18 9 -4 -8 14 -17 14
-18 -10 -5 -22 12 -24 12 -12 -2 10 -13 10 -18 1 -24 -8 -4 -9 -3 -5 4 13 21
-9 13 -24 -9 -8 -11 -24 -25 -35 -30 -18 -9 -19 -9 -2 4 9 8 17 18 17 22 0 5
-8 1 -18 -8 -10 -10 -22 -14 -26 -10 -4 4 -4 1 -1 -8 4 -10 -1 -15 -15 -17
-43 -4 -49 -6 -44 -14 3 -4 15 -3 27 3 21 10 21 9 3 -5 -10 -9 -23 -13 -28
-10 -12 8 -58 -35 -58 -53 0 -9 -5 -11 -12 -7 -7 4 -2 -5 11 -19 14 -15 31
-26 39 -25 17 3 24 -39 9 -49 -6 -3 -7 -1 -3 5 5 9 0 9 -17 3 -14 -6 -28 -7
-33 -3 -4 4 -4 2 0 -5 4 -7 14 -10 24 -7 14 5 14 4 3 -4 -9 -7 -21 -7 -32 -2
-19 11 -30 4 -23 -15 3 -7 0 -16 -7 -21 -8 -5 -10 -3 -4 7 5 10 5 11 -3 4 -14
-14 -20 -94 -7 -99 5 -2 18 1 28 6 9 5 22 6 28 3 5 -4 15 -2 22 4 21 17 40 -4
35 -37 -4 -28 -1 -32 24 -37 31 -7 44 -4 40 9 -2 5 4 6 13 3 19 -8 62 7 47 17
-6 3 -13 2 -17 -4 -3 -5 -11 -10 -18 -10 -6 0 -1 7 11 16 19 13 26 14 40 2 16
-12 16 -11 2 6 -14 17 -13 18 7 12 12 -4 31 -1 42 6 22 14 30 34 9 22 -8 -4
-9 -3 -5 2 5 5 15 9 23 9 7 0 14 4 13 8 0 5 8 15 18 23 10 7 15 14 11 14 -8 0
-195 -106 -215 -122 -18 -14 -26 10 -25 73 l1 58 -57 -34 c-61 -36 -72 -36
-72 -2 0 17 19 33 85 70 l85 48 -52 28 c-29 16 -53 33 -53 39 0 6 67 49 149
96 l148 85 69 -37 c38 -20 69 -42 69 -48 0 -6 -22 -23 -50 -38 l-50 -27 0 -55
c0 -30 -7 -71 -15 -91 -8 -20 -13 -38 -10 -41 3 -3 0 -11 -5 -17 -7 -9 -6 -16
5 -25 13 -11 14 -10 9 4 -4 11 -2 15 7 13 8 -2 10 -2 6 1 -4 2 -3 10 4 18 10
12 8 13 -7 8 -17 -5 -17 -4 -4 8 10 9 16 36 18 83 3 55 8 74 24 90 11 11 18
14 14 8 -4 -7 -2 -13 3 -13 6 0 11 5 11 11 0 6 7 9 15 6 8 -4 17 -2 20 3 3 4
0 10 -7 12 -7 3 -5 7 6 11 10 4 15 3 11 -3 -3 -6 -1 -10 6 -10 6 0 9 8 6 20
-3 11 -1 20 4 20 5 0 9 -5 9 -12 0 -6 2 -9 5 -6 8 8 -6 39 -15 33 -4 -3 -10 2
-13 9 -3 8 -1 17 6 20 7 3 -1 3 -18 0 -24 -5 -27 -3 -15 6 12 9 12 10 -6 6
-11 -4 -29 1 -40 10 -18 15 -18 15 3 5 12 -6 24 -7 27 -2 9 14 -3 19 -35 15
-27 -3 -31 -1 -26 16 4 16 2 18 -13 10 -24 -13 -43 -13 -35 0 11 18 -5 10 -29
-13z m24 -1 c0 -2 -7 -7 -16 -10 -8 -3 -12 -2 -9 4 6 10 25 14 25 6z m-240
-382 c0 -8 -4 -12 -10 -9 -5 3 -19 1 -30 -5 -11 -6 -20 -8 -20 -6 0 4 48 34
58 36 1 0 2 -7 2 -16z m180 -34 c0 -5 -8 -10 -17 -10 -15 0 -16 2 -3 10 19 12
20 12 20 0z"/>
<path d="M951 1434 c0 -11 3 -14 6 -6 3 7 2 16 -1 19 -3 4 -6 -2 -5 -13z"/>
<path d="M1288 1388 l-107 -60 52 -28 c28 -15 53 -32 55 -38 1 -5 -15 -20 -37
-32 -35 -20 -40 -27 -43 -66 l-3 -43 32 20 c18 10 50 29 71 41 56 32 62 44 62
125 l0 74 35 21 c20 11 35 22 33 23 -32 26 -46 22 -150 -37z m122 36 c0 -8
-19 -13 -24 -6 -3 5 1 9 9 9 8 0 15 -2 15 -3z m-39 -27 c-6 -6 -11 -44 -11
-85 l0 -74 -20 23 -20 24 14 -29 c15 -30 12 -51 -5 -41 -17 11 -50 14 -44 4 4
-5 10 -7 15 -4 5 3 12 0 16 -6 4 -8 3 -9 -4 -5 -7 4 -12 1 -13 -6 0 -10 -2
-10 -6 0 -2 6 -9 9 -15 6 -6 -4 -8 2 -6 12 2 11 9 20 16 20 6 1 15 3 20 4 4 1
11 2 15 1 5 -1 6 3 2 9 -3 6 -11 8 -16 5 -5 -4 -9 3 -9 13 0 22 -25 47 -38 38
-5 -3 -18 1 -28 9 -16 13 -17 16 -4 24 9 6 19 6 26 0 8 -6 14 -4 18 6 4 11 2
14 -7 10 -6 -4 -3 1 7 9 14 11 23 13 32 5 16 -13 37 -2 30 17 -3 8 0 11 10 7
8 -3 14 -2 13 3 -3 18 1 25 12 18 8 -4 8 -9 0 -17z m-105 -219 c-9 -5 -19 -8
-22 -8 -4 1 -11 -4 -15 -12 -6 -9 -9 -4 -9 16 0 29 1 29 16 10 12 -15 14 -15
11 -2 -7 22 3 30 20 16 12 -10 12 -13 -1 -20z"/>
<path d="M1343 1320 c0 -25 2 -35 4 -22 2 12 2 32 0 45 -2 12 -4 2 -4 -23z"/>
<path d="M1236 1331 c-3 -5 1 -11 9 -14 9 -4 12 -1 8 9 -6 16 -10 17 -17 5z"/>
<path d="M1450 1325 c0 -8 2 -15 4 -15 2 0 6 7 10 15 3 8 1 15 -4 15 -6 0 -10
-7 -10 -15z"/>
<path d="M1044 1298 c-4 -7 -4 -10 1 -6 4 4 14 0 22 -10 13 -15 13 -15 3 6
-12 25 -16 27 -26 10z"/>
<path d="M1452 1220 c0 -14 2 -19 5 -12 2 6 2 18 0 25 -3 6 -5 1 -5 -13z"/>
<path d="M970 1194 c0 -6 7 -17 15 -24 9 -7 14 -19 11 -26 -3 -7 -2 -16 3 -18
4 -3 7 8 7 24 0 16 -3 27 -7 24 -4 -2 -12 4 -18 13 -6 10 -11 13 -11 7z"/>
<path d="M950 1166 c0 -8 4 -17 9 -20 5 -4 7 3 4 14 -6 23 -13 26 -13 6z"/>
<path d="M1520 1091 c0 -10 19 -25 25 -20 1 2 -3 10 -11 17 -8 7 -14 8 -14 3z"/>
<path d="M1050 1031 c0 -5 7 -12 16 -15 14 -5 15 -4 4 9 -14 17 -20 19 -20 6z"/>
<path d="M1262 944 c10 -10 20 -16 22 -13 3 3 -5 11 -17 18 -21 13 -21 12 -5
-5z"/>
<path d="M1265 910 c-3 -6 1 -7 9 -4 18 7 21 14 7 14 -6 0 -13 -4 -16 -10z"/>
<path d="M1388 1733 c7 -3 16 -2 19 1 4 3 -2 6 -13 5 -11 0 -14 -3 -6 -6z"/>
<path d="M2110 1660 c6 -11 13 -20 16 -20 2 0 0 9 -6 20 -6 11 -13 20 -16 20
-2 0 0 -9 6 -20z"/>
<path d="M2137 1663 c3 -7 6 -13 8 -13 2 0 5 6 8 13 3 8 -1 14 -8 14 -7 0 -11
-6 -8 -14z"/>
<path d="M436 1653 c-6 -14 -5 -15 5 -6 7 7 10 15 7 18 -3 3 -9 -2 -12 -12z"/>
<path d="M506 1653 c-6 -14 -5 -15 5 -6 7 7 10 15 7 18 -3 3 -9 -2 -12 -12z"/>
<path d="M2043 1651 c0 -11 5 -18 9 -15 4 3 5 11 1 19 -7 21 -12 19 -10 -4z"/>
<path d="M2000 1631 c0 -6 4 -13 10 -16 6 -3 7 1 4 9 -7 18 -14 21 -14 7z"/>
<path d="M845 1590 c-3 -5 -1 -10 4 -10 6 0 11 5 11 10 0 6 -2 10 -4 10 -3 0
-8 -4 -11 -10z"/>
<path d="M835 1549 c-11 -16 -1 -19 13 -3 7 8 8 14 3 14 -5 0 -13 -5 -16 -11z"/>
<path d="M833 1240 c0 -25 2 -35 4 -22 2 12 2 32 0 45 -2 12 -4 2 -4 -23z"/>
<path d="M432 1235 c0 -16 2 -22 5 -12 2 9 2 23 0 30 -3 6 -5 -1 -5 -18z"/>
<path d="M431 1184 c0 -11 3 -14 6 -6 3 7 2 16 -1 19 -3 4 -6 -2 -5 -13z"/>
<path d="M1727 1113 c-10 -9 -9 -33 1 -33 4 0 8 9 8 20 0 23 0 22 -9 13z"/>
<path d="M806 1053 c-6 -14 -5 -15 5 -6 7 7 10 15 7 18 -3 3 -9 -2 -12 -12z"/>
<path d="M2141 903 c-10 -26 -10 -27 4 -9 8 11 15 23 15 28 0 15 -7 8 -19 -19z"/>
<path d="M410 901 c0 -6 4 -13 10 -16 6 -3 7 1 4 9 -7 18 -14 21 -14 7z"/>
<path d="M980 890 c-8 -5 -10 -10 -5 -10 6 0 17 5 25 10 8 5 11 10 5 10 -5 0
-17 -5 -25 -10z"/>
<path d="M1570 886 c7 -7 13 -7 20 0 6 6 3 10 -10 10 -13 0 -16 -4 -10 -10z"/>
<path d="M1356 822 c-3 -5 1 -9 9 -9 8 0 12 4 9 9 -3 4 -7 8 -9 8 -2 0 -6 -4
-9 -8z"/>
<path d="M500 755 c-7 -9 -11 -17 -9 -20 3 -2 10 5 17 15 14 24 10 26 -8 5z"/>
<path d="M635 710 c17 -19 41 -18 29 1 -3 5 -10 7 -15 4 -5 -4 -9 -1 -9 4 0 6
-5 11 -12 11 -6 0 -3 -8 7 -20z"/>
<path d="M686 689 c3 -5 9 -7 14 -4 4 3 11 0 13 -5 3 -6 4 -5 3 1 -1 7 -10 13
-19 15 -9 1 -15 -2 -11 -7z"/>
<path d="M1906 585 c7 -18 6 -19 -12 -5 -18 14 -18 14 -5 -3 10 -12 17 -15 25
-7 7 7 6 14 -3 23 -10 10 -11 8 -5 -8z"/>
<path d="M920 550 c-9 -6 -10 -10 -3 -10 6 0 15 5 18 10 8 12 4 12 -15 0z"/>
<path d="M1607 553 c-9 -8 12 -33 27 -33 6 0 3 5 -7 11 -9 6 -15 14 -12 20 7
10 2 12 -8 2z"/>
<path d="M740 537 c0 -2 15 -16 33 -33 l32 -29 -29 33 c-28 30 -36 37 -36 29z"/>
<path d="M1080 459 c-12 -8 -10 -9 8 -4 13 4 22 2 22 -4 0 -6 8 -11 17 -11 15
0 14 2 -3 15 -23 17 -25 18 -44 4z"/>
<path d="M1191 451 c-12 -8 -9 -11 11 -16 14 -4 37 -5 49 -2 15 3 9 5 -16 6
-30 1 -36 4 -25 11 8 5 11 10 5 10 -5 0 -17 -4 -24 -9z"/>
</g>
</svg>
